<svg width="24" height="24" viewBox="0 0 24 24" fill="none" xmlns="http://www.w3.org/2000/svg">
<path fill-rule="evenodd" clip-rule="evenodd" d="M16.5134 21.5H8.16555C5.09919 21.5 2.74679 20.3925 3.41498 15.9348L4.19301 9.89363C4.60491 7.66937 6.02367 6.81812 7.26852 6.81812H17.447C18.7102 6.81812 20.0466 7.73345 20.5225 9.89363L21.3006 15.9348C21.8681 19.8891 19.5797 21.5 16.5134 21.5Z" stroke="#0B132A" stroke-width="1.5" stroke-linecap="round" stroke-linejoin="round"/>
<path d="M16.6512 6.59848C16.6512 4.21241 14.7169 2.27812 12.3309 2.27812V2.27812C11.1819 2.27325 10.0782 2.72628 9.26406 3.53703C8.44987 4.34778 7.99218 5.44947 7.99219 6.59848H7.99219" stroke="#0B132A" stroke-width="1.5" stroke-linecap="round" stroke-linejoin="round"/>
<path d="M15.297 11.102H15.2512" stroke="#0B132A" stroke-width="1.5" stroke-linecap="round" stroke-linejoin="round"/>
<path d="M9.46492 11.102H9.41916" stroke="#0B132A" stroke-width="1.5" stroke-linecap="round" stroke-linejoin="round"/>
</svg>
