<svg width="38" height="13" viewBox="0 0 38 13" fill="none" xmlns="http://www.w3.org/2000/svg">
<g clip-path="url(#clip0_99_1575)">
<path fill-rule="evenodd" clip-rule="evenodd" d="M6.30041 0.428223C6.28798 0.428223 6.27556 0.428223 6.26313 0.428223C4.5941 0.428223 2.98823 0.818332 1.43205 1.60533C0.800471 3.11675 0.4443 4.6532 0.425664 6.22094C0.400814 7.77616 0.719194 9.36893 1.42532 10.9935C3.05035 11.7049 4.67538 12.07 6.30041 12.0893C7.92543 12.07 9.55046 11.7049 11.175 10.9935C11.8816 9.36893 12.2 7.77616 12.1751 6.22094C12.1565 4.6532 11.8003 3.11675 11.1688 1.60533C9.61258 0.818332 8.00671 0.428223 6.33768 0.428223C6.32525 0.428223 6.31283 0.428223 6.30041 0.428223Z" fill="#FEFEFE"/>
<path d="M1.16968 1.25951C2.80713 0.415665 4.5067 0 6.26322 0C6.27565 0 6.28807 0 6.3005 0C6.31292 0 6.32535 0 6.33777 0C8.09429 0 9.79387 0.415665 11.4313 1.25951L11.5318 1.36643C12.2001 2.95294 12.5816 4.57127 12.6003 6.21464C12.6003 6.24593 12.6003 6.27096 12.6003 6.30278V6.41595C12.5941 7.99621 12.2565 9.60828 11.5318 11.2454L11.4189 11.3523C9.71311 12.1143 8.0068 12.4981 6.3005 12.5174C4.59419 12.4981 2.88789 12.1143 1.1821 11.3523L1.06924 11.2454C0.344478 9.60828 0.0069447 7.99621 0.000732422 6.41595V6.30278C0.000732422 6.27096 0.000732422 6.24593 0.000732422 6.21464C0.0193692 4.57127 0.400906 2.95294 1.06924 1.36643L1.16968 1.25951ZM6.3005 0.428182C6.28807 0.428182 6.27565 0.428182 6.26322 0.428182C4.59419 0.428182 2.98832 0.818292 1.43214 1.60529C0.800563 3.11671 0.444392 4.65316 0.425756 6.2209C0.400907 7.77612 0.719286 9.36889 1.42541 10.9935C3.05044 11.7049 4.67547 12.0699 6.3005 12.0892C7.92553 12.0699 9.55055 11.7049 11.1751 10.9935C11.8817 9.36889 12.2001 7.77612 12.1752 6.2209C12.1566 4.65316 11.8004 3.11671 11.1689 1.60529C9.61268 0.818292 8.0068 0.428182 6.33777 0.428182C6.32535 0.428182 6.31292 0.428182 6.3005 0.428182Z" fill="#003399"/>
<path fill-rule="evenodd" clip-rule="evenodd" d="M6.41235 9.75329C6.32486 8.55063 6.38128 7.29737 6.02511 6.15155C5.69379 5.08136 4.43736 4.47064 4.41251 3.29301C4.38766 2.37354 5.08137 1.3096 6.38128 1.3096C7.59993 1.30334 8.35627 2.19726 8.44376 3.19235C8.54989 4.34443 7.16248 5.11891 6.8001 6.21466C6.42477 7.33544 6.53141 8.57566 6.41235 9.75329Z" fill="#003399"/>
<path fill-rule="evenodd" clip-rule="evenodd" d="M6.89339 9.4634C6.84318 8.41824 6.84318 7.41741 7.13101 6.52923C7.44939 5.52214 8.11204 4.67203 9.12464 4.3951C9.81834 4.2063 10.8366 5.02459 10.6746 5.86218C10.5369 6.53601 9.86804 7.32927 8.79332 7.41741C8.29323 7.46122 8.08097 7.86436 7.76829 8.09749C9.16812 7.95876 10.0746 7.40489 10.7057 6.82546C10.7994 7.31623 10.862 8.1413 10.4805 8.42449C9.73085 8.95959 9.03715 8.52515 8.15552 8.77705C7.66216 8.92204 7.35569 9.23705 6.89339 9.4634Z" fill="#003399"/>
<path fill-rule="evenodd" clip-rule="evenodd" d="M5.93873 9.4634C5.99464 8.41824 5.98843 7.41741 5.70733 6.52923C5.38843 5.52214 4.72631 4.67203 3.7137 4.3951C3.02 4.2063 1.99498 5.02459 2.16374 5.86218C2.30145 6.53601 2.96978 7.32927 4.04503 7.41741C4.5389 7.46122 4.75737 7.86436 5.07005 8.09749C3.66349 7.95876 2.76374 7.40489 2.13268 6.82546C2.03898 7.31623 1.97634 8.1413 2.35736 8.42449C3.10749 8.95959 3.80119 8.52515 4.6823 8.77705C5.17618 8.92204 5.47592 9.23705 5.93873 9.4634Z" fill="#003399"/>
<path fill-rule="evenodd" clip-rule="evenodd" d="M9.26924 11.0188V10.8487L9.39452 10.8174L9.26924 10.6286V10.3136L9.83197 11.1006L9.63214 11.1512L9.49444 10.9556L9.26924 11.0188ZM9.26924 10.3136V10.6286L9.18175 10.5024L9.14448 10.8805L9.26924 10.8487V11.0188L9.12584 11.0506L9.10048 11.2832L8.90065 11.3338L9.03214 10.3074L9.23197 10.2568L9.26924 10.3136ZM7.40711 11.5669V11.4031H7.4506C7.51945 11.3969 7.56345 11.3906 7.58209 11.3838C7.60694 11.3776 7.63179 11.3588 7.64473 11.34C7.66337 11.315 7.66958 11.2894 7.66958 11.2581C7.66337 11.2268 7.65716 11.2013 7.638 11.1825C7.62558 11.1637 7.60073 11.1512 7.57588 11.145C7.55103 11.1387 7.4946 11.1387 7.40711 11.145V10.9812C7.45681 10.9812 7.48839 10.9749 7.50081 10.9749C7.53188 10.9687 7.55724 10.9494 7.57588 10.9306C7.59452 10.9118 7.60073 10.8868 7.59452 10.855C7.59452 10.8237 7.58209 10.7987 7.56345 10.7856C7.55103 10.7669 7.52566 10.7543 7.48839 10.7543C7.47597 10.7543 7.4506 10.7543 7.40711 10.7606V10.5968C7.47597 10.5906 7.52566 10.5906 7.55724 10.5968C7.59452 10.5968 7.63179 10.6099 7.66337 10.6286C7.69443 10.6412 7.71928 10.6662 7.74465 10.6975C7.76328 10.7293 7.77571 10.7668 7.78192 10.8112C7.78813 10.855 7.77571 10.8993 7.75707 10.9369C7.73843 10.9749 7.70685 11.0062 7.66337 11.0313C7.72549 11.0443 7.77571 11.0693 7.80677 11.1069C7.84456 11.145 7.8632 11.1888 7.86941 11.2456C7.86941 11.2894 7.8632 11.3338 7.85077 11.3776C7.83214 11.4219 7.80677 11.4532 7.77571 11.485C7.73843 11.51 7.70064 11.5288 7.65094 11.5413C7.61937 11.5476 7.53809 11.5539 7.41954 11.5669H7.40711ZM8.58796 11.0375L8.7821 11.0631C8.76967 11.17 8.73809 11.2581 8.68218 11.3212C8.62575 11.3776 8.54448 11.4219 8.44456 11.4407C8.31928 11.4595 8.20694 11.4344 8.11324 11.3651C8.01333 11.2894 7.9569 11.1825 7.92584 11.0313C7.90047 10.8743 7.91963 10.7418 7.98796 10.6412C8.0506 10.5405 8.15052 10.4774 8.28201 10.4524C8.40056 10.4331 8.49426 10.4524 8.58175 10.5087C8.63197 10.5405 8.67545 10.5906 8.70703 10.6662L8.52584 10.7418C8.5072 10.6975 8.47562 10.6599 8.43835 10.6412C8.39435 10.6161 8.35086 10.6099 8.30065 10.6161C8.23179 10.6286 8.18209 10.6662 8.1443 10.723C8.10703 10.7856 8.10082 10.868 8.11945 10.9812C8.1443 11.1006 8.18209 11.1825 8.23179 11.2268C8.28201 11.2707 8.34465 11.2894 8.41298 11.2769C8.4632 11.2644 8.50099 11.2394 8.53205 11.2013C8.56311 11.1637 8.58175 11.1069 8.58796 11.0375ZM7.40711 10.5968V10.7606C7.38226 10.7606 7.3569 10.7669 7.32584 10.7669L7.2135 10.7799L7.23213 11L7.36311 10.9875C7.37553 10.9875 7.39469 10.9875 7.40711 10.9812V11.145C7.40711 11.145 7.40711 11.145 7.4009 11.145L7.25077 11.1575L7.26941 11.4156L7.40711 11.4031V11.5669L7.09443 11.5982L7.00694 10.6349L7.38847 10.6036C7.39469 10.5968 7.4009 10.5968 7.40711 10.5968ZM6.20089 11.2331V11.0693C6.24438 11.0693 6.26975 11.0631 6.28838 11.0568C6.31323 11.0506 6.33187 11.0313 6.35102 11.0125C6.36345 10.9875 6.36966 10.9624 6.36966 10.9369C6.37587 10.8993 6.36345 10.8743 6.34429 10.8487C6.32566 10.8237 6.30081 10.8112 6.26975 10.8049C6.25059 10.8049 6.23196 10.7987 6.20089 10.7987V10.6349C6.2946 10.6349 6.35102 10.6412 6.38209 10.6537C6.43851 10.6662 6.482 10.6975 6.51979 10.7481C6.55707 10.7987 6.5757 10.8612 6.56949 10.9369C6.56949 10.9937 6.55707 11.0443 6.53843 11.0881C6.51306 11.1257 6.48821 11.1575 6.45715 11.1825C6.41936 11.2013 6.3883 11.2138 6.35102 11.2268C6.31323 11.2331 6.26353 11.2331 6.20089 11.2331ZM6.20089 10.6349V10.7987C6.18226 10.7987 6.15689 10.7987 6.12583 10.7987L6.03213 10.7924V11.0693H6.13204C6.15689 11.0693 6.18226 11.0693 6.20089 11.0693V11.2331C6.18847 11.2331 6.16932 11.2331 6.15068 11.2331H6.02591L6.0197 11.5982L5.82557 11.5919L5.84472 10.6286L6.15068 10.6349C6.16932 10.6349 6.18847 10.6349 6.20089 10.6349ZM4.39467 11.1387V10.8425C4.4511 10.855 4.48838 10.855 4.50701 10.855C4.53238 10.8487 4.55102 10.8425 4.56965 10.8237C4.58208 10.8049 4.5945 10.7856 4.60071 10.7543C4.60693 10.723 4.60071 10.6975 4.58829 10.6725C4.57587 10.6474 4.55102 10.6349 4.51944 10.6224C4.50701 10.6161 4.46353 10.6099 4.39467 10.5968V10.4331L4.47595 10.4461C4.57587 10.4649 4.64472 10.4837 4.6882 10.5087C4.73221 10.5342 4.76327 10.5718 4.78191 10.6224C4.80106 10.6662 4.80727 10.723 4.79485 10.7799C4.78191 10.8487 4.75084 10.9056 4.70115 10.9431C4.65714 10.9812 4.58829 11 4.5008 11C4.53859 11.0313 4.56965 11.0631 4.58829 11.0944C4.61314 11.1324 4.63851 11.1888 4.66957 11.2707L4.75084 11.4787L4.52565 11.4344L4.42574 11.2013C4.41331 11.1825 4.4071 11.1575 4.39467 11.1387ZM4.94446 10.5405L5.13186 10.5593L5.08838 11.0819C5.08217 11.1637 5.08217 11.2206 5.08217 11.2394C5.08838 11.2832 5.10702 11.315 5.13186 11.34C5.16344 11.3713 5.20072 11.3838 5.25715 11.3906C5.31357 11.3969 5.35706 11.3838 5.38191 11.3651C5.41349 11.3463 5.43212 11.3212 5.44455 11.2894C5.45076 11.2581 5.45697 11.2013 5.46319 11.1257L5.50719 10.5906L5.70081 10.6099L5.65732 11.1132C5.65111 11.2331 5.63817 11.315 5.61953 11.3588C5.6071 11.4031 5.58225 11.4469 5.55689 11.472C5.52583 11.5038 5.48234 11.5288 5.43212 11.5413C5.38812 11.5606 5.326 11.5606 5.25093 11.5539C5.15723 11.5476 5.08838 11.5288 5.04437 11.5038C5.00089 11.4788 4.9631 11.4469 4.93825 11.4156C4.9134 11.3776 4.90097 11.34 4.89476 11.3025C4.88855 11.2456 4.88855 11.1637 4.89476 11.0568L4.94446 10.5405ZM3.42608 10.8237L3.46335 10.6662L3.86974 10.7731L3.76982 11.145C3.71961 11.1763 3.65697 11.195 3.56948 11.2013C3.4882 11.2076 3.41365 11.2013 3.33859 11.1825C3.23815 11.1575 3.15739 11.1132 3.10097 11.0568C3.03833 10.9937 3.00105 10.9181 2.98242 10.8362C2.96947 10.7481 2.96947 10.6599 2.99484 10.5718C3.01969 10.4774 3.06317 10.3955 3.12582 10.3262C3.18224 10.2636 3.25731 10.2255 3.3448 10.2067C3.41365 10.1879 3.49441 10.1942 3.58242 10.2192C3.69476 10.2505 3.78225 10.2949 3.83194 10.3642C3.88216 10.4268 3.90701 10.5087 3.9008 10.5968L3.70718 10.5843C3.70718 10.5342 3.69476 10.4899 3.66318 10.4524C3.63212 10.4205 3.59484 10.3893 3.53841 10.3767C3.45714 10.358 3.38828 10.3642 3.32564 10.4018C3.26352 10.4398 3.21952 10.5149 3.18846 10.6161C3.15739 10.7293 3.16361 10.8174 3.19467 10.8868C3.23194 10.9556 3.28837 11 3.36343 11.0188C3.40692 11.0313 3.44471 11.0313 3.4882 11.0313C3.5322 11.025 3.56948 11.0125 3.60727 11L3.63833 10.8805L3.42608 10.8237ZM4.39467 10.4331L4.06956 10.3767L3.90701 11.3275L4.09441 11.3588L4.16327 10.9624L4.20727 10.9687C4.25076 10.9749 4.28233 10.9875 4.30097 10.9937C4.31961 11.0062 4.33203 11.025 4.35067 11.0443C4.35688 11.0631 4.37604 11.0944 4.39467 11.1387V10.8425C4.37604 10.8425 4.35688 10.8362 4.33203 10.8362L4.19485 10.8112L4.23212 10.5718L4.38225 10.5968C4.38846 10.5968 4.39467 10.5968 4.39467 10.5968V10.4331Z" fill="#003399"/>
<path fill-rule="evenodd" clip-rule="evenodd" d="M34.1812 9.25587V7.48004H34.9562V4.35707L34.1812 5.91855V2.02111H37.2247L37.9997 10.9999H34.9562V9.25587H34.1812ZM34.1812 2.02111V5.91855L33.4062 7.48004H34.1812V9.25587H32.7187L32.1187 10.9055H30.2312V8.85272L32.3372 4.27519H31.906L33.106 2.02111H34.1812ZM30.2312 5.01212L31.175 2.75804L30.2312 2.2292V5.01212ZM22.7252 4.1495C22.7692 3.89134 22.7692 3.63944 22.7252 3.40005V4.1495ZM30.2312 2.2292V5.01212L30.1065 5.31409C28.2438 3.97322 25.4939 5.19466 25.3375 6.61115C25.1817 8.09076 26.3004 9.28716 29.1565 8.39325L28.175 11.0374C24.4067 11.4594 22.9442 9.95473 22.7252 8.19819V7.2031C22.7817 6.74362 22.9002 6.29667 23.0628 5.881C24.9192 1.23411 27.9311 2.27927 29.0752 2.19113L29.244 1.6748L30.2312 2.2292ZM30.2312 8.85272L29.2875 10.9055H30.2312V8.85272ZM19.338 10.8486C21.3565 10.446 23.3377 8.00262 21.3503 6.05728C22.1252 5.64162 22.6067 4.89269 22.7252 4.1495V3.40005C22.5881 2.62557 21.9943 1.99607 20.8755 1.9773L19.338 1.94548V3.67073H19.9753C20.6566 3.67073 20.5691 5.44656 19.719 5.44656H19.338V6.80673C20.2569 6.98301 19.9318 8.26704 19.338 8.66392V10.8486ZM22.7252 7.2031V8.19819C22.688 7.87067 22.688 7.53688 22.7252 7.2031ZM16.6755 1.88916L15.432 4.31952L15.988 4.27519L14.4883 10.9055H18.782C18.9694 10.9055 19.1506 10.8867 19.338 10.8486V8.66392C19.2319 8.73955 19.1128 8.78336 18.9943 8.78336H17.4505L17.963 6.78743H19.119C19.2003 6.78743 19.2754 6.79369 19.338 6.80673V5.44656H18.2628L18.694 3.67073H19.338V1.94548L16.6755 1.88916Z" fill="#003399"/>
</g>
<defs>
<clipPath id="clip0_99_1575">
<rect width="38" height="12.5174" fill="white"/>
</clipPath>
</defs>
</svg>
