<svg width="38" height="13" viewBox="0 0 38 13" fill="none" xmlns="http://www.w3.org/2000/svg">
<g clip-path="url(#clip0_99_1584)">
<path d="M20.6487 10.8467C20.6096 11.5834 20.2818 12.0873 19.6533 12.3932C19.4706 12.4815 19.3005 12.4115 19.2175 12.2243C19.1533 12.0795 19.2269 11.9153 19.3986 11.8385C19.8438 11.6398 20.039 11.2326 20.0307 10.8488C20.0203 10.382 19.7415 10.026 19.3025 9.87279C18.8797 9.72589 18.4381 9.86861 18.126 10.2539C17.8864 10.5498 17.8661 11.0611 18.0764 11.4035C18.1928 11.5938 18.3468 11.7371 18.5493 11.8327C18.7404 11.9226 18.8077 12.0889 18.7304 12.2536C18.6516 12.4214 18.4648 12.4752 18.2774 12.3801C17.7742 12.126 17.4443 11.7308 17.3436 11.1698C17.1844 10.2832 17.7371 9.48802 18.5337 9.2674C19.4753 9.00653 20.3794 9.60251 20.5903 10.4646C20.6231 10.6005 20.6331 10.7427 20.6487 10.8467Z" fill="#00AA11"/>
<path d="M23.0526 9.94627C23.0578 9.87569 23.0615 9.81976 23.0662 9.75545C23.229 9.75545 23.3856 9.75545 23.5521 9.75545C23.5558 9.791 23.5626 9.82498 23.5626 9.85897C23.5631 10.434 23.5657 11.0096 23.5615 11.5852C23.5584 11.9402 23.4216 12.2324 23.1048 12.4112C22.7081 12.636 22.089 12.5654 21.7346 12.2669C21.7012 12.2387 21.6693 12.2089 21.6302 12.1739C21.7356 12.0698 21.839 11.9679 21.9528 11.856C22.1297 11.9982 22.3281 12.0698 22.5598 12.063C22.9174 12.0521 23.0938 11.856 23.0474 11.4744C22.7478 11.7091 22.4179 11.718 22.0822 11.6056C21.8823 11.5387 21.7247 11.4049 21.6125 11.2177C21.376 10.823 21.4371 10.3222 21.7643 10.0163C22.1151 9.68854 22.6454 9.65508 23.0526 9.94627ZM23.0322 10.7111C23.0322 10.3776 22.8516 10.1956 22.5228 10.1988C22.2132 10.2014 22.005 10.4048 21.9935 10.6871C21.9789 11.0556 22.2179 11.2214 22.5343 11.2172C22.8595 11.2125 23.0322 11.0405 23.0322 10.7111Z" fill="black"/>
<path d="M31.2963 9.74989C30.9967 10.0327 30.7237 10.291 30.4465 10.5529C30.7284 10.9283 31.004 11.2953 31.2984 11.6873C31.0969 11.6873 30.9304 11.6926 30.7644 11.6837C30.7258 11.6816 30.6798 11.6403 30.6537 11.6053C30.5003 11.4003 30.3526 11.1912 30.2022 10.9842C30.1772 10.9492 30.15 10.9157 30.1051 10.8561C29.9971 10.98 29.8593 11.0773 29.8123 11.2079C29.7633 11.3444 29.8014 11.5122 29.8014 11.6879C29.7116 11.6879 29.6338 11.6879 29.556 11.6879C29.4819 11.6879 29.4073 11.6879 29.3211 11.6879C29.3175 11.6298 29.3128 11.5833 29.3128 11.5363C29.3123 10.8106 29.3159 10.0845 29.3086 9.35832C29.3076 9.21874 29.3504 9.17848 29.4819 9.1926C29.5816 9.20358 29.6829 9.19469 29.7998 9.19469C29.7998 9.63592 29.7998 10.0615 29.7998 10.5231C29.9517 10.3856 30.0785 10.2732 30.2028 10.1582C30.3296 10.0416 30.4528 9.92137 30.5801 9.80583C30.6078 9.78074 30.6459 9.75303 30.6804 9.75198C30.8725 9.74728 31.0651 9.74989 31.2963 9.74989Z" fill="black"/>
<path d="M27.5456 10.8834C27.5758 11.0884 27.7716 11.2452 27.9971 11.263C28.1876 11.2781 28.3661 11.2504 28.5217 11.1265C28.5467 11.1067 28.6 11.091 28.6214 11.104C28.7258 11.1683 28.8234 11.2426 28.933 11.3199C28.5953 11.6571 28.2106 11.7497 27.769 11.6404C27.4093 11.5515 27.1489 11.3492 27.0643 10.9801C26.8811 10.1766 27.4991 9.64545 28.2132 9.76674C28.6276 9.83679 28.8855 10.0804 28.9826 10.4861C29.0118 10.6074 29.0035 10.7376 29.0134 10.8834C28.7539 10.8834 28.5123 10.8834 28.2706 10.8834C28.0326 10.8834 27.794 10.8834 27.5456 10.8834ZM28.5044 10.5133C28.471 10.2723 28.2795 10.1573 27.9574 10.1724C27.7267 10.1829 27.5701 10.3146 27.5586 10.5133C27.8718 10.5133 28.1839 10.5133 28.5044 10.5133Z" fill="black"/>
<path d="M24.8801 9.72217C25.4511 9.74517 25.8755 10.1012 25.9183 10.6559C25.947 11.0344 25.781 11.3381 25.449 11.542C25.0685 11.7757 24.4651 11.7129 24.1431 11.4014C23.6597 10.9335 23.8074 10.1085 24.4265 9.84973C24.57 9.78961 24.7282 9.76399 24.8801 9.72217ZM25.3995 10.7196C25.3984 10.4049 25.198 10.1969 24.8947 10.199C24.5544 10.2016 24.3764 10.4211 24.3649 10.7207C24.3539 11.0088 24.6003 11.2398 24.889 11.2377C25.1975 11.2351 25.4005 11.0291 25.3995 10.7196Z" fill="black"/>
<path d="M26.2178 9.75098C26.3927 9.75098 26.5467 9.75098 26.7221 9.75098C26.7221 9.79437 26.7221 9.83619 26.7221 9.87801C26.7221 10.578 26.7221 11.278 26.7215 11.9781C26.7215 12.3309 26.5159 12.5364 26.163 12.5374C26.0273 12.538 25.8911 12.538 25.7407 12.538C25.7407 12.4548 25.7407 12.3853 25.7407 12.3158C25.7407 12.2457 25.7407 12.1751 25.7407 12.0805C25.8315 12.0805 25.914 12.0837 25.996 12.0795C26.1823 12.0706 26.2178 12.0324 26.2178 11.8484C26.2178 11.2017 26.2178 10.555 26.2178 9.90834C26.2178 9.86024 26.2178 9.81267 26.2178 9.75098Z" fill="black"/>
<path d="M18.3641 10.8537C18.326 10.5704 18.6846 10.2295 18.9889 10.2494C19.3261 10.2718 19.6049 10.5348 19.6028 10.872C19.6007 11.2076 19.3094 11.5041 18.9743 11.4952C18.6387 11.4863 18.3443 11.2202 18.3641 10.8537Z" fill="#00AA11"/>
<path d="M6.70068 9.98584H7.2211C7.50453 9.98584 7.67208 10.1458 7.67208 10.4025C7.67208 10.6634 7.50662 10.816 7.2211 10.816H6.85884V11.3372H6.70068V9.98584ZM7.2117 10.6655C7.41788 10.6655 7.51236 10.5823 7.51236 10.4025C7.51236 10.2232 7.41371 10.1364 7.2117 10.1364H6.85884V10.6655H7.2117Z" fill="black"/>
<path d="M8.23141 10.2847C8.52058 10.2847 8.71372 10.5027 8.71372 10.8252C8.71372 11.1478 8.52058 11.3658 8.23141 11.3658C7.94432 11.3658 7.75171 11.1478 7.75171 10.8252C7.75171 10.5027 7.94432 10.2847 8.23141 10.2847ZM8.23141 10.4258C8.0294 10.4258 7.90204 10.58 7.90204 10.8252C7.90204 11.0704 8.0294 11.2246 8.23141 11.2246C8.43393 11.2246 8.56339 11.0704 8.56339 10.8252C8.56339 10.58 8.43393 10.4258 8.23141 10.4258Z" fill="black"/>
<path d="M8.81104 10.3135H8.95928L9.14406 11.1092H9.14823L9.42175 10.3135H9.55851L9.83255 11.1092H9.8362L10.0215 10.3135H10.1697L9.92494 11.3371H9.78244L9.49326 10.5012H9.48908L9.19834 11.3371H9.05532L8.81104 10.3135Z" fill="black"/>
<path d="M10.7397 10.2847C11.0138 10.2847 11.1965 10.4912 11.1965 10.7923V10.8697H10.4198C10.4239 11.0668 10.5492 11.2288 10.7361 11.2288C10.8807 11.2288 10.9616 11.1765 11.0482 11.0239L11.1735 11.0992C11.0868 11.2748 10.9386 11.3658 10.7397 11.3658C10.4563 11.3658 10.2673 11.1478 10.2673 10.8252C10.2673 10.5027 10.4626 10.2847 10.7397 10.2847ZM11.0446 10.7479C11.0425 10.6532 11.0117 10.5764 10.9558 10.5142C10.9 10.4525 10.8285 10.4216 10.7397 10.4216C10.5664 10.4216 10.4276 10.5764 10.4239 10.7479H11.0446Z" fill="black"/>
<path d="M11.4114 10.3136H11.5539V10.3989H11.5575C11.5962 10.3351 11.6713 10.2964 11.7695 10.2964C11.8003 10.2964 11.8352 10.3021 11.8718 10.3121L11.8389 10.4684C11.8023 10.4569 11.7679 10.4511 11.7387 10.4511C11.6176 10.4511 11.5612 10.5322 11.5612 10.723V11.3373H11.4114V10.3136Z" fill="black"/>
<path d="M12.4133 10.2847C12.6868 10.2847 12.87 10.4912 12.87 10.7923V10.8697H12.0933C12.097 11.0668 12.2223 11.2288 12.4091 11.2288C12.5537 11.2288 12.6351 11.1765 12.7218 11.0239L12.8471 11.0992C12.7604 11.2748 12.6117 11.3658 12.4133 11.3658C12.1299 11.3658 11.9409 11.1478 11.9409 10.8252C11.9409 10.5027 12.1356 10.2847 12.4133 10.2847ZM12.7176 10.7479C12.7161 10.6532 12.6853 10.5764 12.6294 10.5142C12.573 10.4525 12.502 10.4216 12.4133 10.4216C12.24 10.4216 12.1012 10.5764 12.097 10.7479H12.7176Z" fill="black"/>
<path d="M13.5037 10.2848C13.6274 10.2848 13.7371 10.3371 13.8044 10.4218H13.8086V9.92773H13.9589V11.3372H13.8143V11.2347H13.8101C13.7428 11.3178 13.629 11.3659 13.5037 11.3659C13.2381 11.3659 13.0449 11.1437 13.0449 10.8254C13.0449 10.507 13.2381 10.2848 13.5037 10.2848ZM13.8086 10.725C13.8086 10.5587 13.6734 10.426 13.5037 10.426C13.3205 10.426 13.1953 10.5838 13.1953 10.8254C13.1953 11.0669 13.3205 11.2248 13.5137 11.2248C13.6755 11.2248 13.8086 11.0899 13.8086 10.9236V10.725Z" fill="black"/>
<path d="M14.8787 11.2347V11.3372H14.7346V9.92773H14.8844V10.4218H14.8886C14.9559 10.3371 15.0661 10.2848 15.1893 10.2848C15.4555 10.2848 15.6481 10.507 15.6481 10.8254C15.6481 11.1437 15.4555 11.3659 15.1893 11.3659C15.064 11.3659 14.9502 11.3178 14.8829 11.2347H14.8787ZM15.1893 10.426C15.0196 10.426 14.8844 10.5587 14.8844 10.725V10.9236C14.8844 11.0899 15.0175 11.2248 15.1793 11.2248C15.3725 11.2248 15.4978 11.0669 15.4978 10.8254C15.4978 10.5838 15.3725 10.426 15.1893 10.426Z" fill="black"/>
<path d="M16.091 11.2498L15.698 10.3135H15.8582L16.1683 11.0762H16.172L16.4846 10.3135H16.6443L16.0315 11.771H15.8755L16.091 11.2498Z" fill="black"/>
<path d="M4.14607 0.00341797C6.43547 0.00341797 8.29162 1.79763 8.29162 4.0106C8.29162 6.22356 6.43547 8.01778 4.14607 8.01778C1.85615 8.01778 0 6.22356 0 4.0106C0 1.79763 1.85615 0.00341797 4.14607 0.00341797Z" fill="#00AED6"/>
<path fill-rule="evenodd" clip-rule="evenodd" d="M6.56426 3.88709C6.53242 3.37684 6.08352 2.9858 5.55527 3.0088H2.93651C2.84099 3.0088 2.76373 2.93404 2.76373 2.84151C2.76373 2.7495 2.84099 2.67474 2.93651 2.67474H5.58972C5.57459 2.32917 5.3303 2.03223 4.98527 1.94022C4.2117 1.80639 3.41986 1.80639 2.64629 1.94022C2.20678 2.04478 1.87794 2.39818 1.81739 2.83157C1.69629 3.61785 1.69629 4.41667 1.81739 5.20242C1.90978 5.66143 2.28665 6.01641 2.76373 6.0943C3.72261 6.21088 4.69297 6.21088 5.65184 6.0943C6.07934 6.01066 6.40244 5.67137 6.4536 5.25261C6.54129 4.80249 6.57835 4.34453 6.56426 3.88709ZM5.70038 4.44804V4.59494C5.70038 4.68695 5.62313 4.76171 5.52761 4.76171C5.43209 4.76171 5.35483 4.68695 5.35483 4.59494V4.44804C5.29898 4.40099 5.26766 4.3325 5.26871 4.26088C5.26871 4.12234 5.38459 4.01046 5.52761 4.01046C5.67063 4.01046 5.78651 4.12234 5.78651 4.26088C5.78599 4.33198 5.75467 4.39994 5.70038 4.44804Z" fill="white"/>
<path d="M20.1001 3.56017C20.1059 2.85755 19.5212 2.28352 18.7941 2.27777C18.067 2.27254 17.4735 2.83716 17.4678 3.53979C17.462 4.24241 18.0467 4.81696 18.7738 4.82219C18.7806 4.82219 18.7873 4.82219 18.7941 4.82219C19.4837 4.85826 20.073 4.34645 20.11 3.67989C20.1121 3.64016 20.1121 3.59991 20.1106 3.56017H20.1001ZM16.1895 3.56017C16.1895 2.22445 17.2809 1.20605 18.7941 1.20605C20.3073 1.20605 21.3993 2.23072 21.3993 3.56017C21.3993 4.8891 20.3178 5.91743 18.7941 5.91743C17.2705 5.91743 16.1895 4.89224 16.1895 3.56017Z" fill="black"/>
<path d="M14.1169 3.80331C14.1169 4.35433 13.5365 4.80497 12.801 4.80497C12.125 4.87137 11.5216 4.3951 11.4533 3.74162C11.4465 3.67575 11.4454 3.60935 11.4501 3.54296C11.4501 2.81471 12.0029 2.31388 12.8527 2.31388C13.5438 2.31388 14.1169 2.77132 14.1169 3.28888V3.80331ZM14.1686 1.20191V1.7294C13.7484 1.36031 13.1914 1.17159 12.6246 1.20557C11.2841 1.21707 10.2078 2.27729 10.2198 3.57276C10.2324 4.86823 11.329 5.9091 12.6695 5.89708C13.2212 5.92113 13.7583 5.72142 14.1514 5.34606V5.7967C14.1514 6.40784 13.6059 6.85535 12.8871 6.85535C12.3385 6.89351 11.7978 6.71001 11.3948 6.34772L10.5549 7.12929C11.1844 7.72632 12.04 8.04731 12.9216 8.01751C14.3936 8.01751 15.402 7.06237 15.402 5.79043V1.20191H14.1686Z" fill="black"/>
<path d="M22.1599 1.33898H23.3965V1.73316H23.4137C23.8193 1.37557 24.3548 1.18841 24.9029 1.21194C26.2491 1.26108 27.2993 2.3558 27.2487 3.6565C27.2007 4.88924 26.1781 5.87731 24.9029 5.92384C24.3794 5.93534 23.8683 5.76909 23.4586 5.45281V7.68355H22.1704L22.1599 1.33898ZM24.7025 2.31398C24.0114 2.31398 23.4487 2.77821 23.4487 3.28271V3.8468C23.4487 4.38422 24.0046 4.82859 24.7093 4.82859C25.428 4.86414 26.0403 4.33038 26.0774 3.63611C26.1144 2.94185 25.5622 2.35005 24.8434 2.31398C24.799 2.31189 24.7541 2.31189 24.7093 2.31398H24.7025Z" fill="black"/>
<path d="M29.7223 3.12919C30.569 3.01888 30.8211 2.90178 30.8211 2.67489C30.8211 2.38108 30.5001 2.20385 30.0021 2.20385C29.466 2.16151 28.978 2.50341 28.8517 3.00895L27.636 2.7648C27.8088 1.85672 28.776 1.20898 29.9677 1.20898C31.3154 1.20898 32.1511 1.87659 32.1511 2.95876V5.79385H30.9939V5.29981H30.9766C30.5841 5.72693 30.0084 5.95382 29.4185 5.91409C28.3991 5.91409 27.6908 5.37614 27.6908 4.57836C27.6908 3.78006 28.2712 3.32262 29.7223 3.12919ZM30.925 3.5997H30.9077C30.7934 3.7602 30.5622 3.85378 29.9228 3.96042C29.1664 4.09739 28.8866 4.24116 28.8866 4.50151C28.8866 4.76186 29.1111 4.8889 29.5981 4.8889C30.3409 4.8889 30.9145 4.55484 30.9145 4.13085L30.925 3.5997Z" fill="black"/>
<path d="M34.4828 5.54314L32.3511 1.33887H33.7714L35.1703 4.2508H35.1912L36.5728 1.33887H37.9999L34.8075 7.68344H33.3877L34.4828 5.54314Z" fill="black"/>
</g>
<defs>
<clipPath id="clip0_99_1584">
<rect width="38" height="12.5469" fill="white"/>
</clipPath>
</defs>
</svg>
