<svg width="48" height="48" viewBox="0 0 48 48" fill="none" xmlns="http://www.w3.org/2000/svg">
<circle cx="24" cy="24" r="24" fill="white"/>
<path d="M18 31.5C19.1046 31.5 20 30.6046 20 29.5C20 28.3954 19.1046 27.5 18 27.5C16.8954 27.5 16 28.3954 16 29.5C16 30.6046 16.8954 31.5 18 31.5Z" stroke="#FF8906" stroke-width="2" stroke-linejoin="round"/>
<path d="M29.5 31.5C30.6046 31.5 31.5 30.6046 31.5 29.5C31.5 28.3954 30.6046 27.5 29.5 27.5C28.3954 27.5 27.5 28.3954 27.5 29.5C27.5 30.6046 28.3954 31.5 29.5 31.5Z" stroke="#FF8906" stroke-width="2" stroke-linejoin="round"/>
<path d="M16 29.5H13V17.5H27.5V29.5H20" stroke="#FF8906" stroke-width="2" stroke-linecap="round" stroke-linejoin="round"/>
<path d="M27.5 29.5V21H31.7857L35 25.25V29.5H31.9056" stroke="#FF8906" stroke-width="2" stroke-linecap="round" stroke-linejoin="round"/>
</svg>
