<svg width="48" height="48" viewBox="0 0 48 48" fill="none" xmlns="http://www.w3.org/2000/svg">
<circle cx="24" cy="24" r="24" fill="white"/>
<path d="M25.3 24.22C25.8336 23.7581 26.2616 23.1869 26.5549 22.545C26.8482 21.9032 27 21.2057 27 20.5C27 19.1739 26.4732 17.9021 25.5355 16.9645C24.5979 16.0268 23.3261 15.5 22 15.5C20.6739 15.5 19.4021 16.0268 18.4645 16.9645C17.5268 17.9021 17 19.1739 17 20.5C17 21.2057 17.1518 21.9032 17.4451 22.545C17.7384 23.1869 18.1664 23.7581 18.7 24.22C17.3001 24.8539 16.1125 25.8775 15.279 27.1685C14.4455 28.4596 14.0015 29.9633 14 31.5C14 31.7652 14.1054 32.0196 14.2929 32.2071C14.4804 32.3946 14.7348 32.5 15 32.5C15.2652 32.5 15.5196 32.3946 15.7071 32.2071C15.8946 32.0196 16 31.7652 16 31.5C16 29.9087 16.6321 28.3826 17.7574 27.2574C18.8826 26.1321 20.4087 25.5 22 25.5C23.5913 25.5 25.1174 26.1321 26.2426 27.2574C27.3679 28.3826 28 29.9087 28 31.5C28 31.7652 28.1054 32.0196 28.2929 32.2071C28.4804 32.3946 28.7348 32.5 29 32.5C29.2652 32.5 29.5196 32.3946 29.7071 32.2071C29.8946 32.0196 30 31.7652 30 31.5C29.9985 29.9633 29.5545 28.4596 28.721 27.1685C27.8875 25.8775 26.6999 24.8539 25.3 24.22ZM22 23.5C21.4067 23.5 20.8266 23.3241 20.3333 22.9944C19.8399 22.6648 19.4554 22.1962 19.2284 21.6481C19.0013 21.0999 18.9419 20.4967 19.0576 19.9147C19.1734 19.3328 19.4591 18.7982 19.8787 18.3787C20.2982 17.9591 20.8328 17.6734 21.4147 17.5576C21.9967 17.4419 22.5999 17.5013 23.1481 17.7284C23.6962 17.9554 24.1648 18.3399 24.4944 18.8333C24.8241 19.3266 25 19.9067 25 20.5C25 21.2956 24.6839 22.0587 24.1213 22.6213C23.5587 23.1839 22.7956 23.5 22 23.5ZM33.71 21.13C33.617 21.0363 33.5064 20.9619 33.3846 20.9111C33.2627 20.8603 33.132 20.8342 33 20.8342C32.868 20.8342 32.7373 20.8603 32.6154 20.9111C32.4936 20.9619 32.383 21.0363 32.29 21.13L30.29 23.13L29.67 22.5C29.577 22.4063 29.4664 22.3319 29.3446 22.2811C29.2227 22.2303 29.092 22.2042 28.96 22.2042C28.828 22.2042 28.6973 22.2303 28.5754 22.2811C28.4536 22.3319 28.343 22.4063 28.25 22.5C28.0637 22.6874 27.9592 22.9408 27.9592 23.205C27.9592 23.4692 28.0637 23.7226 28.25 23.91L29.59 25.25C29.7774 25.4363 30.0308 25.5408 30.295 25.5408C30.5592 25.5408 30.8126 25.4363 31 25.25L33.67 22.58C33.771 22.4893 33.8524 22.379 33.9094 22.2559C33.9664 22.1327 33.9977 21.9992 34.0014 21.8636C34.0052 21.7279 33.9813 21.5929 33.9312 21.4668C33.8811 21.3407 33.8058 21.2261 33.71 21.13Z" fill="#FF8906"/>
</svg>
