<svg width="48" height="48" viewBox="0 0 48 48" fill="none" xmlns="http://www.w3.org/2000/svg">
<circle cx="24" cy="24" r="24" fill="white"/>
<path d="M31.0001 15.0001C30.7194 14.6862 30.3758 14.435 29.9916 14.2627C29.6074 14.0904 29.1912 14.0009 28.7701 14.0001H19.2301C18.8068 13.9975 18.3877 14.0845 18.0004 14.2555C17.6131 14.4265 17.2664 14.6775 16.983 14.992C16.6997 15.3065 16.4861 15.6775 16.3563 16.0804C16.2266 16.4834 16.1835 16.9093 16.2301 17.3301L17.7901 31.3301C17.8717 32.0672 18.2234 32.748 18.7774 33.2411C19.3315 33.7342 20.0485 34.0046 20.7901 34.0001H27.2101C27.9518 34.0046 28.6688 33.7342 29.2228 33.2411C29.7768 32.748 30.1286 32.0672 30.2101 31.3301L31.7701 17.3301C31.8133 16.9093 31.767 16.4843 31.6343 16.0827C31.5016 15.6812 31.2855 15.3122 31.0001 15.0001ZM28.2001 31.1101C28.1729 31.3558 28.0557 31.5827 27.871 31.7471C27.6863 31.9114 27.4473 32.0016 27.2001 32.0001H20.7901C20.5429 32.0016 20.3039 31.9114 20.1192 31.7471C19.9346 31.5827 19.8173 31.3558 19.7901 31.1101L18.7801 22.0001H29.2201L28.2001 31.1101ZM29.4401 20.0001H18.5601L18.2401 17.1101C18.2244 16.9698 18.2385 16.8277 18.2816 16.6933C18.3247 16.5588 18.3958 16.4351 18.4901 16.3301C18.5836 16.2265 18.6978 16.1436 18.8252 16.0868C18.9527 16.0299 19.0906 16.0004 19.2301 16.0001H28.7701C28.9097 16.0004 29.0476 16.0299 29.175 16.0868C29.3025 16.1436 29.4166 16.2265 29.5101 16.3301C29.6045 16.4351 29.6756 16.5588 29.7186 16.6933C29.7617 16.8277 29.7759 16.9698 29.7601 17.1101L29.4401 20.0001ZM26.0001 30.0001C26.2653 30.0001 26.5197 29.8947 26.7072 29.7072C26.8948 29.5196 27.0001 29.2653 27.0001 29.0001V25.0001C27.0001 24.7348 26.8948 24.4805 26.7072 24.2929C26.5197 24.1054 26.2653 24.0001 26.0001 24.0001C25.7349 24.0001 25.4806 24.1054 25.293 24.2929C25.1055 24.4805 25.0001 24.7348 25.0001 25.0001V29.0001C25.0001 29.2653 25.1055 29.5196 25.293 29.7072C25.4806 29.8947 25.7349 30.0001 26.0001 30.0001ZM22.0001 30.0001C22.2653 30.0001 22.5197 29.8947 22.7072 29.7072C22.8948 29.5196 23.0001 29.2653 23.0001 29.0001V25.0001C23.0001 24.7348 22.8948 24.4805 22.7072 24.2929C22.5197 24.1054 22.2653 24.0001 22.0001 24.0001C21.7349 24.0001 21.4806 24.1054 21.293 24.2929C21.1055 24.4805 21.0001 24.7348 21.0001 25.0001V29.0001C21.0001 29.2653 21.1055 29.5196 21.293 29.7072C21.4806 29.8947 21.7349 30.0001 22.0001 30.0001Z" fill="#FF8906"/>
</svg>
