<svg width="24" height="24" viewBox="0 0 24 24" fill="none" xmlns="http://www.w3.org/2000/svg">
<path d="M18.9991 3.00006C18.7184 2.68621 18.3748 2.43497 17.9906 2.26268C17.6064 2.09039 17.1902 2.00091 16.7691 2.00006H7.22915C6.80581 1.99749 6.38672 2.08454 5.99943 2.25551C5.61214 2.42647 5.26541 2.67747 4.98205 2.992C4.69869 3.30653 4.48511 3.67747 4.35535 4.08044C4.22558 4.48341 4.18257 4.90928 4.22915 5.33006L5.78915 19.3301C5.87072 20.0672 6.22245 20.748 6.77647 21.2411C7.33048 21.7342 8.04751 22.0046 8.78915 22.0001H15.2091C15.9508 22.0046 16.6678 21.7342 17.2218 21.2411C17.7758 20.748 18.1276 20.0672 18.2091 19.3301L19.7691 5.33006C19.8123 4.90935 19.766 4.48428 19.6333 4.08272C19.5006 3.68117 19.2845 3.31221 18.9991 3.00006ZM16.1992 19.1101C16.172 19.3558 16.0547 19.5827 15.87 19.7471C15.6854 19.9114 15.4464 20.0016 15.1991 20.0001H8.78915C8.54193 20.0016 8.30293 19.9114 8.11826 19.7471C7.93358 19.5827 7.81634 19.3558 7.78915 19.1101L6.77915 10.0001H17.2191L16.1992 19.1101ZM17.4391 8.00006H6.55915L6.23915 5.11006C6.2234 4.96976 6.23754 4.82772 6.28063 4.69328C6.32371 4.55885 6.39478 4.43506 6.48915 4.33006C6.58264 4.22646 6.69678 4.14358 6.82423 4.08675C6.95168 4.02992 7.08961 4.00039 7.22915 4.00006H16.7691C16.9087 4.00039 17.0466 4.02992 17.1741 4.08675C17.3015 4.14358 17.4157 4.22646 17.5091 4.33006C17.6035 4.43506 17.6746 4.55885 17.7177 4.69328C17.7608 4.82772 17.7749 4.96976 17.7591 5.11006L17.4391 8.00006ZM13.9991 18.0001C14.2644 18.0001 14.5187 17.8947 14.7063 17.7072C14.8938 17.5196 14.9991 17.2653 14.9991 17.0001V13.0001C14.9991 12.7348 14.8938 12.4805 14.7063 12.2929C14.5187 12.1054 14.2644 12.0001 13.9991 12.0001C13.7339 12.0001 13.4796 12.1054 13.292 12.2929C13.1045 12.4805 12.9991 12.7348 12.9991 13.0001V17.0001C12.9991 17.2653 13.1045 17.5196 13.292 17.7072C13.4796 17.8947 13.7339 18.0001 13.9991 18.0001ZM9.99915 18.0001C10.2644 18.0001 10.5187 17.8947 10.7063 17.7072C10.8938 17.5196 10.9991 17.2653 10.9991 17.0001V13.0001C10.9991 12.7348 10.8938 12.4805 10.7063 12.2929C10.5187 12.1054 10.2644 12.0001 9.99915 12.0001C9.73393 12.0001 9.47958 12.1054 9.29204 12.2929C9.10451 12.4805 8.99915 12.7348 8.99915 13.0001V17.0001C8.99915 17.2653 9.10451 17.5196 9.29204 17.7072C9.47958 17.8947 9.73393 18.0001 9.99915 18.0001Z" fill="#4F5665"/>
</svg>
